<svg width="13" height="14" viewBox="0 0 13 14" fill="none"
  xmlns="http://www.w3.org/2000/svg">
  <path fill-rule="evenodd" clip-rule="evenodd" d="M2.15045 2.77917C2.55479 3.10768 2.70647 3.08261 3.46576 3.03195L10.6238 2.60214C10.7756 2.60214 10.6494 2.45069 10.5987 2.42552L9.40996 1.56611C9.18216 1.38926 8.87869 1.18674 8.29705 1.2374L1.36589 1.74293C1.11311 1.768 1.06263 1.89439 1.16329 1.99569L2.15045 2.77917ZM2.58021 4.44736V11.9789C2.58021 12.3837 2.78248 12.5351 3.23773 12.51L11.1044 12.0548C11.5599 12.0298 11.6107 11.7514 11.6107 11.4226V3.94159C11.6107 3.61332 11.4844 3.43629 11.2056 3.46156L2.98477 3.94159C2.68138 3.96709 2.58021 4.11885 2.58021 4.44736ZM10.3462 4.85136C10.3966 5.07905 10.3462 5.30654 10.1181 5.33214L9.73905 5.40766V10.9679C9.40996 11.1448 9.10649 11.2459 8.85361 11.2459C8.44873 11.2459 8.34733 11.1194 8.04406 10.7406L5.56475 6.84834V10.6142L6.3493 10.7912C6.3493 10.7912 6.3493 11.2459 5.71633 11.2459L3.97137 11.3471C3.92068 11.2459 3.97137 10.9934 4.14837 10.9428L4.60373 10.8166V5.83745L3.9715 5.78678C3.92078 5.55909 4.04707 5.23079 4.40146 5.20532L6.2734 5.07913L8.85361 9.02201V5.53403L8.19575 5.45853C8.14526 5.18018 8.34733 4.97806 8.60031 4.953L10.3462 4.85136ZM0.783941 1.06058L7.99345 0.529645C8.8788 0.453713 9.10659 0.504582 9.66304 0.90879L11.9644 2.52631C12.3441 2.80446 12.4707 2.88019 12.4707 3.1834V12.0548C12.4707 12.6108 12.2682 12.9396 11.56 12.99L3.18763 13.4955C2.65606 13.5209 2.40308 13.4451 2.1247 13.0911L0.429936 10.8922C0.126288 10.4874 0 10.1846 0 9.83037V1.94485C0 1.49018 0.202603 1.11091 0.783941 1.06058Z" fill="black"/>
</svg>
