<svg width="15" height="16" viewBox="0 0 15 16" fill="none"
  xmlns="http://www.w3.org/2000/svg">
  <path d="M9.375 4.875H11.25C11.6604 4.875 12.0667 4.95583 12.4459 5.11288C12.825 5.26992 13.1695 5.50011 13.4597 5.79029C13.7499 6.08047 13.9801 6.42497 14.1371 6.80411C14.2942 7.18326 14.375 7.58962 14.375 8C14.375 8.41038 14.2942 8.81674 14.1371 9.19589C13.9801 9.57503 13.7499 9.91953 13.4597 10.2097C13.1695 10.4999 12.825 10.7301 12.4459 10.8871C12.0667 11.0442 11.6604 11.125 11.25 11.125H9.375M5.625 11.125H3.75C3.33962 11.125 2.93326 11.0442 2.55411 10.8871C2.17497 10.7301 1.83047 10.4999 1.54029 10.2097C0.95424 9.62366 0.625 8.8288 0.625 8C0.625 7.1712 0.95424 6.37634 1.54029 5.79029C2.12634 5.20424 2.9212 4.875 3.75 4.875H5.625" stroke="#21243A" stroke-linecap="round" stroke-linejoin="round"/>
  <path d="M5 8H10" stroke="#21243A" stroke-linecap="round" stroke-linejoin="round"/>
</svg>
